<svg width="20" height="20" viewBox="0 0 102 102" fill="none" xmlns="http://www.w3.org/2000/svg"><path d="M88.7457 1H13.2543C6.48645 1 1 6.48645 1 13.2543V88.7457C1 95.5135 6.48645 101 13.2543 101H88.7457C95.5135 101 101 95.5135 101 88.7457V13.2543C101 6.48645 95.5135 1 88.7457 1Z" fill="#12538F" stroke="#12538F" stroke-width="0.198718" stroke-miterlimit="22.9256"/><path d="M24.1214 91.5202V15.4509H48.7457C58.1098 15.4509 64.1214 15.7977 67.0116 16.6069C71.4046 17.763 74.9885 20.1907 77.9942 24.0058C80.8844 27.8208 82.3873 32.7919 82.3873 38.8035C82.3873 43.4277 81.5781 47.3584 79.8439 50.5954C78.1098 53.8324 76.0289 56.2601 73.37 58.1098C70.711 59.9595 68.1676 61.1156 65.3931 61.6936C61.6937 62.3873 56.4913 62.7341 49.5549 62.7341H39.6127V91.4046H24.237L24.1214 91.5202ZM39.4971 28.2832V49.9017H47.8208C53.8324 49.9017 57.8786 49.4393 59.9596 48.7457C62.0405 47.9364 63.5434 46.6647 64.6994 45.0462C65.8555 43.3121 66.4335 41.3468 66.4335 39.1503C66.4335 36.3757 65.6243 34.0636 64.0058 32.3295C62.3873 30.4798 60.3064 29.4393 57.8786 28.9769C56.0289 28.63 52.4451 28.5144 46.896 28.5144H39.4971V28.2832Z" fill="#FEFEFE"/></svg>