<svg width="156" height="161" viewBox="0 0 156 161" fill="none" xmlns="http://www.w3.org/2000/svg">
<path d="M115.746 1H40.2543C33.4865 1 28 6.48645 28 13.2543V88.7457C28 95.5135 33.4865 101 40.2543 101H115.746C122.514 101 128 95.5135 128 88.7457V13.2543C128 6.48645 122.514 1 115.746 1Z" fill="#12538F" stroke="#12538F" stroke-width="0.198718" stroke-miterlimit="22.9256"/>
<path d="M58 83V24H77.0179C84.25 24 88.8929 24.269 91.125 24.8967C94.5179 25.7933 97.2857 27.6763 99.6071 30.6353C101.839 33.5942 103 37.4498 103 42.1125C103 45.6991 102.375 48.7477 101.036 51.2584C99.6964 53.769 98.0893 55.652 96.0357 57.0866C93.9821 58.5213 92.0179 59.4179 89.875 59.8663C87.0179 60.4043 83 60.6733 77.6429 60.6733H69.9643V82.9103H58.0893L58 83ZM69.875 33.9529V50.7204H76.3036C80.9464 50.7204 84.0714 50.3617 85.6786 49.8237C87.2857 49.196 88.4464 48.2097 89.3393 46.9544C90.2321 45.6094 90.6786 44.0851 90.6786 42.3815C90.6786 40.2295 90.0536 38.4362 88.8036 37.0912C87.5536 35.6565 85.9464 34.8495 84.0714 34.4909C82.6429 34.2219 79.875 34.1322 75.5893 34.1322H69.875V33.9529Z" fill="#FEFEFE"/>
<path d="M7.89258 126.406V152H2.63672V126.406H7.89258ZM17.4727 137.041V152H12.4102V132.98H17.1562L17.4727 137.041ZM16.7344 141.822H15.3633C15.3633 140.416 15.5449 139.15 15.9082 138.025C16.2715 136.889 16.7812 135.922 17.4375 135.125C18.0938 134.316 18.873 133.701 19.7754 133.279C20.6895 132.846 21.709 132.629 22.834 132.629C23.7246 132.629 24.5391 132.758 25.2773 133.016C26.0156 133.273 26.6484 133.684 27.1758 134.246C27.7148 134.809 28.125 135.553 28.4062 136.479C28.6992 137.404 28.8457 138.535 28.8457 139.871V152H23.748V139.854C23.748 139.01 23.6309 138.354 23.3965 137.885C23.1621 137.416 22.8164 137.088 22.3594 136.9C21.9141 136.701 21.3633 136.602 20.707 136.602C20.0273 136.602 19.4355 136.736 18.9316 137.006C18.4395 137.275 18.0293 137.65 17.7012 138.131C17.3848 138.6 17.1445 139.15 16.9805 139.783C16.8164 140.416 16.7344 141.096 16.7344 141.822ZM42.9785 142.877H36.457V138.764H42.9785C43.9863 138.764 44.8066 138.6 45.4395 138.271C46.0723 137.932 46.5352 137.463 46.8281 136.865C47.1211 136.268 47.2676 135.594 47.2676 134.844C47.2676 134.082 47.1211 133.373 46.8281 132.717C46.5352 132.061 46.0723 131.533 45.4395 131.135C44.8066 130.736 43.9863 130.537 42.9785 130.537H38.2852V152H33.0117V126.406H42.9785C44.9824 126.406 46.6992 126.77 48.1289 127.496C49.5703 128.211 50.6719 129.201 51.4336 130.467C52.1953 131.732 52.5762 133.18 52.5762 134.809C52.5762 136.461 52.1953 137.891 51.4336 139.098C50.6719 140.305 49.5703 141.236 48.1289 141.893C46.6992 142.549 44.9824 142.877 42.9785 142.877ZM65.9531 147.711V139.238C65.9531 138.629 65.8535 138.107 65.6543 137.674C65.4551 137.229 65.1445 136.883 64.7227 136.637C64.3125 136.391 63.7793 136.268 63.123 136.268C62.5605 136.268 62.0742 136.367 61.6641 136.566C61.2539 136.754 60.9375 137.029 60.7148 137.393C60.4922 137.744 60.3809 138.16 60.3809 138.641H55.3184C55.3184 137.832 55.5059 137.064 55.8809 136.338C56.2559 135.611 56.8008 134.973 57.5156 134.422C58.2305 133.859 59.0801 133.42 60.0645 133.104C61.0605 132.787 62.1738 132.629 63.4043 132.629C64.8809 132.629 66.1934 132.875 67.3418 133.367C68.4902 133.859 69.3926 134.598 70.0488 135.582C70.7168 136.566 71.0508 137.797 71.0508 139.273V147.412C71.0508 148.455 71.1152 149.311 71.2441 149.979C71.373 150.635 71.5605 151.209 71.8066 151.701V152H66.6914C66.4453 151.484 66.2578 150.84 66.1289 150.066C66.0117 149.281 65.9531 148.496 65.9531 147.711ZM66.6211 140.416L66.6562 143.281H63.8262C63.1582 143.281 62.5781 143.357 62.0859 143.51C61.5938 143.662 61.1895 143.879 60.873 144.16C60.5566 144.43 60.3223 144.746 60.1699 145.109C60.0293 145.473 59.959 145.871 59.959 146.305C59.959 146.738 60.0586 147.131 60.2578 147.482C60.457 147.822 60.7441 148.092 61.1191 148.291C61.4941 148.479 61.9336 148.572 62.4375 148.572C63.1992 148.572 63.8613 148.42 64.4238 148.115C64.9863 147.811 65.4199 147.436 65.7246 146.99C66.041 146.545 66.2051 146.123 66.2168 145.725L67.5527 147.869C67.3652 148.35 67.1074 148.848 66.7793 149.363C66.4629 149.879 66.0586 150.365 65.5664 150.822C65.0742 151.268 64.4824 151.637 63.791 151.93C63.0996 152.211 62.2793 152.352 61.3301 152.352C60.123 152.352 59.0273 152.111 58.043 151.631C57.0703 151.139 56.2969 150.465 55.7227 149.609C55.1602 148.742 54.8789 147.758 54.8789 146.656C54.8789 145.66 55.0664 144.775 55.4414 144.002C55.8164 143.229 56.3672 142.578 57.0938 142.051C57.832 141.512 58.752 141.107 59.8535 140.838C60.9551 140.557 62.2324 140.416 63.6855 140.416H66.6211ZM80.0156 137.129V152H74.9531V132.98H79.7168L80.0156 137.129ZM85.7461 132.857L85.6582 137.551C85.4121 137.516 85.1133 137.486 84.7617 137.463C84.4219 137.428 84.1113 137.41 83.8301 137.41C83.1152 137.41 82.4941 137.504 81.9668 137.691C81.4512 137.867 81.0176 138.131 80.666 138.482C80.3262 138.834 80.0684 139.262 79.8926 139.766C79.7285 140.27 79.6348 140.844 79.6113 141.488L78.5918 141.172C78.5918 139.941 78.7148 138.811 78.9609 137.779C79.207 136.736 79.5645 135.828 80.0332 135.055C80.5137 134.281 81.0996 133.684 81.791 133.262C82.4824 132.84 83.2734 132.629 84.1641 132.629C84.4453 132.629 84.7324 132.652 85.0254 132.699C85.3184 132.734 85.5586 132.787 85.7461 132.857ZM93.1992 124.982V152H88.1367V124.982H93.1992ZM105.188 132.98L96.9258 142.402L92.4961 146.885L90.6504 143.229L94.166 138.764L99.1055 132.98H105.188ZM99.9316 152L94.3066 143.211L97.8047 140.152L105.768 152H99.9316ZM112.711 132.98V152H107.631V132.98H112.711ZM107.314 128.023C107.314 127.285 107.572 126.676 108.088 126.195C108.604 125.715 109.295 125.475 110.162 125.475C111.018 125.475 111.703 125.715 112.219 126.195C112.746 126.676 113.01 127.285 113.01 128.023C113.01 128.762 112.746 129.371 112.219 129.852C111.703 130.332 111.018 130.572 110.162 130.572C109.295 130.572 108.604 130.332 108.088 129.852C107.572 129.371 107.314 128.762 107.314 128.023ZM121.852 137.041V152H116.789V132.98H121.535L121.852 137.041ZM121.113 141.822H119.742C119.742 140.416 119.924 139.15 120.287 138.025C120.65 136.889 121.16 135.922 121.816 135.125C122.473 134.316 123.252 133.701 124.154 133.279C125.068 132.846 126.088 132.629 127.213 132.629C128.104 132.629 128.918 132.758 129.656 133.016C130.395 133.273 131.027 133.684 131.555 134.246C132.094 134.809 132.504 135.553 132.785 136.479C133.078 137.404 133.225 138.535 133.225 139.871V152H128.127V139.854C128.127 139.01 128.01 138.354 127.775 137.885C127.541 137.416 127.195 137.088 126.738 136.9C126.293 136.701 125.742 136.602 125.086 136.602C124.406 136.602 123.814 136.736 123.311 137.006C122.818 137.275 122.408 137.65 122.08 138.131C121.764 138.6 121.523 139.15 121.359 139.783C121.195 140.416 121.113 141.096 121.113 141.822ZM149.115 132.98H153.703V151.367C153.703 153.102 153.316 154.572 152.543 155.779C151.781 156.998 150.715 157.918 149.344 158.539C147.973 159.172 146.379 159.488 144.562 159.488C143.766 159.488 142.922 159.383 142.031 159.172C141.152 158.961 140.309 158.633 139.5 158.188C138.703 157.742 138.035 157.18 137.496 156.5L139.729 153.512C140.314 154.191 140.994 154.719 141.768 155.094C142.541 155.48 143.396 155.674 144.334 155.674C145.248 155.674 146.021 155.504 146.654 155.164C147.287 154.836 147.773 154.35 148.113 153.705C148.453 153.072 148.623 152.305 148.623 151.402V137.375L149.115 132.98ZM136.318 142.719V142.35C136.318 140.896 136.494 139.578 136.846 138.395C137.209 137.199 137.719 136.174 138.375 135.318C139.043 134.463 139.852 133.801 140.801 133.332C141.75 132.863 142.822 132.629 144.018 132.629C145.283 132.629 146.344 132.863 147.199 133.332C148.055 133.801 148.758 134.469 149.309 135.336C149.859 136.191 150.287 137.205 150.592 138.377C150.908 139.537 151.154 140.809 151.33 142.191V143C151.154 144.324 150.891 145.555 150.539 146.691C150.188 147.828 149.725 148.824 149.15 149.68C148.576 150.523 147.861 151.18 147.006 151.648C146.162 152.117 145.154 152.352 143.982 152.352C142.811 152.352 141.75 152.111 140.801 151.631C139.863 151.15 139.061 150.477 138.393 149.609C137.725 148.742 137.209 147.723 136.846 146.551C136.494 145.379 136.318 144.102 136.318 142.719ZM141.381 142.35V142.719C141.381 143.504 141.457 144.236 141.609 144.916C141.762 145.596 141.996 146.199 142.312 146.727C142.641 147.242 143.045 147.646 143.525 147.939C144.018 148.221 144.598 148.361 145.266 148.361C146.191 148.361 146.947 148.168 147.533 147.781C148.119 147.383 148.559 146.838 148.852 146.146C149.145 145.455 149.314 144.658 149.361 143.756V141.453C149.338 140.715 149.238 140.053 149.062 139.467C148.887 138.869 148.641 138.359 148.324 137.938C148.008 137.516 147.598 137.188 147.094 136.953C146.59 136.719 145.992 136.602 145.301 136.602C144.633 136.602 144.053 136.754 143.561 137.059C143.08 137.352 142.676 137.756 142.348 138.271C142.031 138.787 141.791 139.396 141.627 140.1C141.463 140.791 141.381 141.541 141.381 142.35Z" fill="#12538F"/>
</svg>
